<svg width="80" height="88" viewBox="0 0 80 88" fill="none" xmlns="http://www.w3.org/2000/svg">
<g clip-path="url(#clip0_9009_34776)">
<g clip-path="url(#clip1_9009_34776)">
<path d="M17.2325 36.8034C17.1048 40.2492 20.1037 45.9496 20.9014 47.0132C18.1857 31.7942 35.4146 28.9227 39.8854 23.0841C46.1069 32.9748 57.4334 36.0058 58.55 43.8226C64.1335 24.9984 54.296 17.2879 49.7761 15.1077C50.4142 10.9601 48.9784 5.53615 46.9046 3.14324C44.8308 0.750344 40.6831 0.271763 36.0567 3.14324C32.3557 5.44043 30.686 11.6514 30.3138 14.4697C28.0804 14.9482 24.2518 18.4578 20.9017 22.1269C17.5516 25.7961 17.392 32.4962 17.2325 36.8034Z" fill="#442C5C" fill-opacity="0.1"/>
<path d="M37.6465 55.7256C37.806 56.2042 38.4441 57.1613 39.7203 57.1613C41.3156 57.1613 41.9537 56.6828 42.1132 55.7256" stroke="#94A6B0"/>
<path d="M27.7559 42.7997C29.1916 42.3212 32.414 41.6511 33.8179 42.7997" stroke="#94A6B0"/>
<path d="M52.3228 42.7997C50.8871 42.3212 47.6646 41.6511 46.2607 42.7997" stroke="#94A6B0"/>
<path d="M17.9276 45.355C17.13 45.7272 15.6317 47.2053 16.0133 50.1408C16.2828 52.2147 17.1304 55.2457 19.6826 57.16" stroke="#94A6B0"/>
<path d="M62.0549 45.355C62.8525 45.7272 64.3528 47.2055 63.9691 50.1407C63.7398 51.8956 62.8521 55.2456 60.2998 57.1599" stroke="#94A6B0"/>
<path d="M21.6943 45.9932L22.811 58.2768C23.0237 59.6062 24.3106 63.0945 27.7563 66.4126C31.2021 69.7308 33.5525 71.9429 34.2969 72.6342C35.1478 73.3787 37.4875 74.8676 40.04 74.8676" stroke="#94A6B0"/>
<path d="M58.5448 45.9932L57.4282 58.2768C57.2155 59.6062 55.9286 63.0945 52.4828 66.4126C49.037 69.7308 46.6867 71.9429 45.9422 72.6342C45.0914 73.3787 42.7516 74.8676 40.1992 74.8676" stroke="#94A6B0"/>
<path d="M35.7334 63.0635C37.0097 63.5421 37.3287 63.5421 38.1251 63.5421C40.2946 63.5421 41.3688 63.5421 42.2727 63.5421C43.549 63.5421 42.9121 63.5421 44.6669 63.223" stroke="#94A6B0"/>
<path d="M31.1057 48.8665C31.8986 48.8665 32.5414 48.0809 32.5414 47.1117C32.5414 46.1426 31.8986 45.3569 31.1057 45.3569C30.3127 45.3569 29.6699 46.1426 29.6699 47.1117C29.6699 48.0809 30.3127 48.8665 31.1057 48.8665Z" fill="#94A6B0"/>
<path d="M48.9729 48.8646C49.7658 48.8646 50.4086 48.0789 50.4086 47.1098C50.4086 46.1406 49.7658 45.355 48.9729 45.355C48.1799 45.355 47.5371 46.1406 47.5371 47.1098C47.5371 48.0789 48.1799 48.8646 48.9729 48.8646Z" fill="#94A6B0"/>
<path d="M29.9893 11.8552C30.0425 8.23923 32.1269 0.975444 40.0394 0.847818C47.952 0.720199 50.1429 8.13288 50.2492 11.8552" stroke="#94A6B0"/>
<path d="M25.5225 28.2856C29.7339 22.798 36.5298 21.426 39.4013 21.426L42.4322 13.1306C42.4322 13.1306 28.9736 10.1003 19.939 24.2975C16.3656 29.9129 17.1739 39.6121 18.6628 42.9622C18.6628 42.9622 20.2581 35.1453 25.5225 28.2856Z" stroke="#94A6B0"/>
<path d="M45.1447 13.2905C47.4312 13.6096 52.7063 15.2368 55.514 19.193C59.0235 24.1384 59.9807 27.4885 60.2998 31.3171C60.555 34.38 59.9807 39.6125 59.6616 41.8459C59.6616 38.549 58.4174 30.9662 53.4401 27.0099C47.2186 22.0645 42.4328 21.905 41.4756 21.586" stroke="#94A6B0"/>
<path d="M42.1143 23.8193C42.2205 24.7233 42.9756 27.0098 45.1453 28.9242C47.8572 31.3171 52.0049 34.8267 54.8764 37.6982C57.7479 40.5696 58.2265 41.5268 58.5455 42.9626" stroke="#94A6B0"/>
<path d="M40.0407 23.1802C40.0407 23.1802 37.417 25.9988 34.9359 27.4874C31.7454 29.4018 29.512 29.7208 25.3643 33.8685C22.4928 36.74 20.738 41.5273 20.4189 42.9631" stroke="#94A6B0"/>
<path d="M29.5941 68.0078V79.3343C29.6424 81.089 29.536 85.1412 28.7236 87.3107" stroke="#94A6B0"/>
<path d="M50.4951 68.3271V79.6535C50.4468 81.4083 50.5532 85.4605 51.3656 87.63" stroke="#94A6B0"/>
</g>
</g>
<defs>
<clipPath id="clip0_9009_34776">
<rect width="49.9231" height="88" fill="white" transform="translate(15.0381)"/>
</clipPath>
<clipPath id="clip1_9009_34776">
<rect width="49.0769" height="88" fill="white" transform="translate(15.4609)"/>
</clipPath>
</defs>
</svg>
