<svg width="130" height="36" viewBox="0 0 130 36" fill="none" xmlns="http://www.w3.org/2000/svg">
<path d="M123.64 18.9316C124.705 18.9316 125.475 19.4911 125.81 20.5256H121.561C121.835 19.5228 122.586 18.9316 123.64 18.9316ZM128.181 21.4194C128.181 18.9844 126.335 16.9788 123.64 16.9788C120.945 16.9788 119.092 18.9 119.092 21.4475C119.092 23.995 121.051 25.9162 123.64 25.9162C125.675 25.9162 127.353 24.741 127.991 22.8972H125.5C125.139 23.5024 124.464 23.8789 123.64 23.8789C122.491 23.8789 121.704 23.242 121.496 22.0879H128.133C128.162 21.8627 128.177 21.641 128.177 21.4158L128.181 21.4194ZM114.585 25.9162C116.799 25.9162 118.261 24.7938 118.261 23.0661C118.261 21.0041 116.434 20.7121 115.004 20.4658C114.093 20.3074 113.345 20.1737 113.345 19.6107C113.345 19.1252 113.779 18.8014 114.519 18.8014C115.347 18.8014 115.836 19.1322 115.843 19.8043H118.093C118.082 18.1153 116.696 16.9788 114.578 16.9788C112.459 16.9788 111.051 18.0836 111.051 19.6846C111.051 21.6797 112.834 22.0386 114.235 22.2638C115.161 22.4116 115.923 22.5876 115.923 23.1681C115.923 23.7487 115.336 24.0197 114.676 24.0197C113.826 24.0197 113.228 23.6432 113.217 22.8902H110.905C110.916 24.7023 112.386 25.9162 114.589 25.9162H114.585ZM109.734 17.1723C108.608 17.1723 107.816 17.5066 107.193 18.2561L106.773 17.218H105.252V25.677H107.623V21.2821C107.623 19.8993 108.152 19.3293 109.486 19.3293H110.515V17.1723H109.734ZM99.3516 18.9316C100.417 18.9316 101.186 19.4911 101.522 20.5256H97.2729C97.55 19.5228 98.2977 18.9316 99.3516 18.9316ZM103.888 21.4194C103.888 18.9844 102.043 16.9788 99.348 16.9788C96.6529 16.9788 94.8003 18.9 94.8003 21.4475C94.8003 23.995 96.7586 25.9162 99.348 25.9162C101.383 25.9162 103.061 24.741 103.699 22.8972H101.208C100.847 23.5024 100.172 23.8789 99.348 23.8789C98.1992 23.8789 97.4115 23.242 97.2036 22.0879H103.841C103.87 21.8627 103.885 21.641 103.885 21.4158L103.888 21.4194ZM92.2985 17.218L90.1905 22.8866L88.0461 17.218H85.5188L89.0855 25.677H91.2737L94.7565 17.218H92.2985ZM82.2293 25.677H84.5998V17.218H82.2293V25.677ZM77.1382 17.0175C75.9456 17.0175 74.8953 17.5031 74.2316 18.2631L73.7684 17.218H72.1419V25.677H74.5124V21.2293C74.5124 19.8676 75.2563 19.0231 76.4781 19.0231C77.5028 19.0231 78.0061 19.6389 78.0061 20.9197V25.677H80.3766V20.5502C80.3766 18.4074 79.1294 17.0175 77.1309 17.0175M65.6357 25.9162C68.3199 25.9162 70.3293 24.1217 70.3293 21.5495V14.7092H67.8676V21.4369C67.8676 22.8057 66.9413 23.6748 65.6357 23.6748C64.3301 23.6748 63.4002 22.8057 63.4002 21.4369V14.7092H60.9385V21.5495C60.9385 24.1217 62.9479 25.9162 65.6357 25.9162Z" fill="#442C5D"/>
<path d="M96.8361 9.71426C95.4529 9.71426 94.4393 8.7086 94.4393 7.36415C94.4393 6.01971 95.4566 5.01404 96.8361 5.01404C98.2157 5.01404 99.233 6.01614 99.233 7.36415C99.233 8.71217 98.2194 9.71426 96.8361 9.71426ZM99.7855 3.07761L99.533 3.89783C98.7719 3.23809 97.7729 2.84937 96.6422 2.84937C93.9965 2.84937 92.0278 4.78224 92.0278 7.36415C92.0278 9.94607 93.9965 11.9075 96.6422 11.9075C97.751 11.9075 98.739 11.5294 99.4928 10.884L99.6977 11.6507H101.564V3.07761H99.7892H99.7855ZM87.6586 2.88504C86.5389 2.88504 85.5362 3.42353 84.9361 4.25801C84.4275 3.395 83.5017 2.88504 82.3819 2.88504C81.3464 2.88504 80.384 3.3843 79.7582 4.15103L79.3118 3.08831H77.6505V11.6614H80.029V7.02537C80.029 5.68448 80.673 4.92132 81.7452 4.92132C82.5978 4.92132 83.0443 5.52401 83.0443 6.66875V11.6614H85.3643V7.02537C85.3643 5.68448 85.9937 4.92132 87.0549 4.92132C87.9184 4.92132 88.3759 5.52401 88.3759 6.66875V11.6614H90.7544V6.2836C90.7544 4.27585 89.4773 2.88147 87.655 2.88147M73.3142 11.6614H75.6927V0H73.3142V11.665V11.6614ZM66.6031 3.48772L68.107 7.46044H65.1137L66.6031 3.48772ZM69.6769 11.6614H72.3555L67.7411 0.549191H65.4101L60.9385 11.6614H63.5585L64.3416 9.55379H68.8791L69.6769 11.6614Z" fill="#442C5D"/>
<path d="M17.4041 3.16073C15.4603 6.3431 0.654189 28.7352 0.654189 28.7352C0.654189 28.7352 -1.98611 32.917 3.3419 32.917H10.4167C10.4167 32.917 11.2592 32.917 11.9192 31.9104C12.7617 30.6259 27.4146 7.55544 27.4146 7.55544C27.4146 7.55544 27.6553 6.98535 28.0637 7.01783C28.4722 7.0503 28.0637 7.95955 28.0637 7.95955L22.9436 18.1561C22.9436 18.1561 22.6701 18.8273 22.805 19.5669C22.9436 20.3066 25.7079 32.9206 38.7453 32.9206C51.7827 32.9206 54.9591 20.3066 54.9591 20.3066C54.9591 20.3066 55.3347 18.2211 55.3347 16.7814V2.45714C55.3347 2.45714 55.0976 0.108244 52.5376 0.0432976C49.9775 -0.0216489 45.2658 0.0432976 45.2658 0.0432976L45.1637 16.8392C45.1637 16.8392 44.6495 22.7818 38.9495 22.6519C33.0562 22.5184 32.7353 16.8392 32.7353 16.8392L32.7681 0.0108243H22.2252C22.2252 0.0108243 22.1522 0 22.0173 0C21.3463 0 19.1837 0.241745 17.4004 3.16073" fill="#442C5D"/>
<path d="M61.4437 33.8016V28.3066H63.2172C63.6071 28.3066 63.9327 28.3818 64.1938 28.532C64.4568 28.6805 64.6544 28.8826 64.7868 29.1384C64.9209 29.3942 64.988 29.6822 64.988 30.0023C64.988 30.3225 64.9218 30.6114 64.7895 30.869C64.6571 31.1248 64.4603 31.3278 64.1992 31.478C63.938 31.6265 63.6134 31.7007 63.2252 31.7007H61.83V31.25H63.2118C63.4998 31.25 63.7386 31.1963 63.9282 31.089C64.1178 30.9799 64.2591 30.8314 64.3521 30.6436C64.4469 30.4558 64.4943 30.242 64.4943 30.0023C64.4943 29.7627 64.4469 29.5489 64.3521 29.3611C64.2591 29.1733 64.1169 29.0257 63.9255 28.9184C63.7359 28.8111 63.4953 28.7574 63.2038 28.7574H61.9454V33.8016H61.4437ZM67.6241 33.8874C67.2682 33.8874 66.9534 33.7971 66.6797 33.6165C66.4078 33.4358 66.195 33.1863 66.0411 32.8679C65.8873 32.5477 65.8104 32.1783 65.8104 31.7598C65.8104 31.3376 65.8873 30.9665 66.0411 30.6463C66.195 30.3243 66.4078 30.0739 66.6797 29.895C66.9534 29.7144 67.2682 29.624 67.6241 29.624C67.9801 29.624 68.294 29.7144 68.5659 29.895C68.8378 30.0757 69.0506 30.3261 69.2045 30.6463C69.3601 30.9665 69.4379 31.3376 69.4379 31.7598C69.4379 32.1783 69.361 32.5477 69.2072 32.8679C69.0533 33.1863 68.8396 33.4358 68.5659 33.6165C68.294 33.7971 67.9801 33.8874 67.6241 33.8874ZM67.6241 33.4501C67.9103 33.4501 68.1527 33.3732 68.3513 33.2194C68.5498 33.0655 68.7001 32.8607 68.802 32.6049C68.9058 32.3491 68.9576 32.0674 68.9576 31.7598C68.9576 31.4521 68.9058 31.1695 68.802 30.9119C68.7001 30.6543 68.5498 30.4477 68.3513 30.2921C68.1527 30.1365 67.9103 30.0587 67.6241 30.0587C67.3397 30.0587 67.0974 30.1365 66.897 30.2921C66.6985 30.4477 66.5473 30.6543 66.4436 30.9119C66.3416 31.1695 66.2907 31.4521 66.2907 31.7598C66.2907 32.0674 66.3416 32.3491 66.4436 32.6049C66.5473 32.8607 66.6985 33.0655 66.897 33.2194C67.0956 33.3732 67.3379 33.4501 67.6241 33.4501ZM71.2611 33.8016L70.0161 29.6804H70.5205L71.4972 33.0798H71.532L72.506 29.6804H73.0131L73.979 33.0718H74.0166L74.9932 29.6804H75.4976L74.2527 33.8016H73.759L72.7824 30.4236H72.7314L71.7547 33.8016H71.2611ZM77.952 33.8874C77.5674 33.8874 77.2347 33.798 76.9539 33.6191C76.6731 33.4385 76.4557 33.189 76.3019 32.8706C76.1499 32.5504 76.0738 32.1819 76.0738 31.7651C76.0738 31.3501 76.1499 30.9817 76.3019 30.6597C76.4557 30.3359 76.6677 30.0828 76.9378 29.9004C77.2097 29.7162 77.5236 29.624 77.8795 29.624C78.1031 29.624 78.3187 29.6652 78.5262 29.7475C78.7337 29.8279 78.9197 29.9523 79.0843 30.1204C79.2506 30.2868 79.3821 30.4969 79.4787 30.7509C79.5753 31.0031 79.6236 31.3019 79.6236 31.6471V31.8832H76.4039V31.4619H79.1352C79.1352 31.1972 79.0816 30.9593 78.9742 30.7482C78.8687 30.5354 78.7211 30.3672 78.5315 30.2438C78.3437 30.1204 78.1264 30.0587 77.8795 30.0587C77.6184 30.0587 77.3885 30.1285 77.19 30.268C76.9914 30.4075 76.8358 30.5917 76.7231 30.8207C76.6122 31.0496 76.5559 31.3001 76.5541 31.5719V31.8242C76.5541 32.1515 76.6105 32.4377 76.7231 32.6827C76.8376 32.926 76.9995 33.1147 77.2088 33.2489C77.4181 33.383 77.6658 33.4501 77.952 33.4501C78.147 33.4501 78.3178 33.4197 78.4645 33.3589C78.6129 33.2981 78.7372 33.2167 78.8374 33.1147C78.9394 33.011 79.0163 32.8974 79.0682 32.774L79.5216 32.9215C79.459 33.095 79.3561 33.2551 79.213 33.4018C79.0717 33.5485 78.8946 33.6665 78.6818 33.756C78.4707 33.8436 78.2275 33.8874 77.952 33.8874ZM80.676 33.8016V29.6804H81.1402V30.3136H81.175C81.2573 30.1061 81.4004 29.9388 81.6043 29.8118C81.81 29.6831 82.0426 29.6187 82.3019 29.6187C82.3413 29.6187 82.3851 29.6196 82.4334 29.6213C82.4817 29.6231 82.5219 29.6249 82.5541 29.6267V30.1124C82.5327 30.1088 82.4951 30.1034 82.4415 30.0963C82.3878 30.0891 82.3297 30.0855 82.2671 30.0855C82.0524 30.0855 81.861 30.1311 81.6929 30.2224C81.5265 30.3118 81.3951 30.4361 81.2985 30.5953C81.2019 30.7545 81.1536 30.9361 81.1536 31.14V33.8016H80.676ZM84.9099 33.8874C84.5253 33.8874 84.1926 33.798 83.9118 33.6191C83.631 33.4385 83.4136 33.189 83.2598 32.8706C83.1078 32.5504 83.0317 32.1819 83.0317 31.7651C83.0317 31.3501 83.1078 30.9817 83.2598 30.6597C83.4136 30.3359 83.6256 30.0828 83.8957 29.9004C84.1676 29.7162 84.4815 29.624 84.8374 29.624C85.061 29.624 85.2766 29.6652 85.4841 29.7475C85.6916 29.8279 85.8776 29.9523 86.0422 30.1204C86.2085 30.2868 86.34 30.4969 86.4366 30.7509C86.5332 31.0031 86.5815 31.3019 86.5815 31.6471V31.8832H83.3618V31.4619H86.0931C86.0931 31.1972 86.0395 30.9593 85.9321 30.7482C85.8266 30.5354 85.679 30.3672 85.4894 30.2438C85.3016 30.1204 85.0843 30.0587 84.8374 30.0587C84.5763 30.0587 84.3464 30.1285 84.1479 30.268C83.9493 30.4075 83.7937 30.5917 83.681 30.8207C83.5701 31.0496 83.5138 31.3001 83.512 31.5719V31.8242C83.512 32.1515 83.5684 32.4377 83.681 32.6827C83.7955 32.926 83.9574 33.1147 84.1667 33.2489C84.376 33.383 84.6237 33.4501 84.9099 33.4501C85.1049 33.4501 85.2757 33.4197 85.4224 33.3589C85.5708 33.2981 85.6951 33.2167 85.7953 33.1147C85.8973 33.011 85.9742 32.8974 86.0261 32.774L86.4795 32.9215C86.4169 33.095 86.314 33.2551 86.1709 33.4018C86.0296 33.5485 85.8525 33.6665 85.6397 33.756C85.4286 33.8436 85.1854 33.8874 84.9099 33.8874ZM89.1176 33.8874C88.7796 33.8874 88.4835 33.798 88.2295 33.6191C87.9755 33.4403 87.777 33.1907 87.6339 32.8706C87.4926 32.5504 87.4219 32.1774 87.4219 31.7517C87.4219 31.3278 87.4926 30.9566 87.6339 30.6382C87.777 30.3181 87.9764 30.0694 88.2322 29.8923C88.488 29.7135 88.7858 29.624 89.1257 29.624C89.3761 29.624 89.5845 29.6688 89.7508 29.7582C89.9172 29.8458 90.0505 29.9549 90.1506 30.0855C90.2508 30.2161 90.3286 30.3431 90.384 30.4665H90.427V28.3066H90.9072V33.8016H90.4404V33.0369H90.384C90.3286 33.1621 90.2499 33.2909 90.1479 33.4233C90.046 33.5539 89.9109 33.6639 89.7428 33.7533C89.5764 33.8427 89.3681 33.8874 89.1176 33.8874ZM89.174 33.4501C89.4405 33.4501 89.6677 33.3777 89.8555 33.2328C90.0433 33.0861 90.1864 32.8849 90.2848 32.6291C90.3849 32.3715 90.435 32.0764 90.435 31.7437C90.435 31.4145 90.3858 31.1239 90.2875 30.8717C90.1891 30.6177 90.046 30.4191 89.8582 30.276C89.6703 30.1311 89.4423 30.0587 89.174 30.0587C88.8985 30.0587 88.666 30.1338 88.4764 30.2841C88.2886 30.4325 88.1455 30.6338 88.0471 30.8878C87.9505 31.1418 87.9022 31.4271 87.9022 31.7437C87.9022 32.0638 87.9514 32.3527 88.0498 32.6103C88.1481 32.8679 88.2912 33.0727 88.4791 33.2247C88.6687 33.375 88.9003 33.4501 89.174 33.4501ZM94.4918 33.8016V28.3066H94.9721V30.4665H95.015C95.0687 30.3431 95.1456 30.2161 95.2458 30.0855C95.3477 29.9549 95.481 29.8458 95.6456 29.7582C95.8119 29.6688 96.0212 29.624 96.2734 29.624C96.6115 29.624 96.9084 29.7135 97.1642 29.8923C97.42 30.0694 97.6194 30.3181 97.7625 30.6382C97.9056 30.9566 97.9772 31.3278 97.9772 31.7517C97.9772 32.1774 97.9056 32.5504 97.7625 32.8706C97.6212 33.1907 97.4227 33.4403 97.1669 33.6191C96.9129 33.798 96.6177 33.8874 96.2815 33.8874C96.031 33.8874 95.8218 33.8427 95.6536 33.7533C95.4873 33.6639 95.3531 33.5539 95.2512 33.4233C95.1492 33.2909 95.0705 33.1621 95.015 33.0369H94.956V33.8016H94.4918ZM94.9641 31.7437C94.9641 32.0764 95.0133 32.3715 95.1116 32.6291C95.2118 32.8849 95.3549 33.0861 95.5409 33.2328C95.7287 33.3777 95.9559 33.4501 96.2224 33.4501C96.4961 33.4501 96.7277 33.375 96.9174 33.2247C97.107 33.0727 97.2509 32.8679 97.3493 32.6103C97.4477 32.3527 97.4969 32.0638 97.4969 31.7437C97.4969 31.4271 97.4477 31.1418 97.3493 30.8878C97.2527 30.6338 97.1096 30.4325 96.92 30.2841C96.7304 30.1338 96.4979 30.0587 96.2224 30.0587C95.9541 30.0587 95.7261 30.1311 95.5382 30.276C95.3522 30.4191 95.21 30.6177 95.1116 30.8717C95.0133 31.1239 94.9641 31.4145 94.9641 31.7437ZM99.2114 35.347C99.1166 35.347 99.028 35.3381 98.9458 35.3202C98.8635 35.3023 98.7982 35.2827 98.7499 35.2612L98.8787 34.8399C99.0415 34.89 99.1863 34.9079 99.3133 34.8936C99.4403 34.8811 99.553 34.8238 99.6514 34.7219C99.7498 34.6217 99.8374 34.4679 99.9144 34.2604L100.065 33.8418L98.5487 29.6804H99.0665L100.29 33.1711H100.328L101.551 29.6804H102.069L100.325 34.4536C100.252 34.6521 100.161 34.8176 100.054 34.9499C99.9465 35.0841 99.8222 35.1834 99.6809 35.2478C99.5414 35.314 99.3849 35.347 99.2114 35.347Z" fill="black"/>
<path d="M107.321 29.8172C107.296 29.5829 107.191 29.4004 107.005 29.2699C106.82 29.1393 106.581 29.074 106.286 29.074C106.078 29.074 105.9 29.1053 105.752 29.1679C105.603 29.2305 105.49 29.3155 105.411 29.4228C105.332 29.5301 105.292 29.6527 105.29 29.7904C105.29 29.9049 105.316 30.0041 105.368 30.0882C105.422 30.1723 105.494 30.2438 105.585 30.3029C105.676 30.3601 105.778 30.4084 105.888 30.4477C105.999 30.4871 106.111 30.5202 106.224 30.547L106.739 30.6758C106.946 30.7241 107.146 30.7894 107.337 30.8717C107.531 30.9539 107.703 31.0577 107.855 31.1829C108.009 31.3081 108.131 31.4593 108.22 31.6363C108.309 31.8134 108.354 32.0209 108.354 32.2588C108.354 32.5808 108.272 32.8643 108.107 33.1094C107.943 33.3526 107.705 33.5431 107.394 33.6809C107.084 33.8168 106.709 33.8848 106.269 33.8848C105.842 33.8848 105.471 33.8186 105.156 33.6862C104.843 33.5539 104.598 33.3607 104.421 33.1067C104.246 32.8527 104.151 32.5432 104.136 32.1783H105.116C105.13 32.3697 105.189 32.5289 105.293 32.6559C105.397 32.7829 105.532 32.8777 105.698 32.9403C105.866 33.0029 106.054 33.0342 106.261 33.0342C106.478 33.0342 106.667 33.002 106.83 32.9376C106.995 32.8715 107.124 32.7802 107.217 32.664C107.31 32.5459 107.357 32.4082 107.359 32.2508C107.357 32.1077 107.315 31.9896 107.233 31.8966C107.15 31.8018 107.035 31.7231 106.887 31.6605C106.74 31.5961 106.568 31.5389 106.371 31.4888L105.746 31.3278C105.294 31.2115 104.936 31.0353 104.673 30.7992C104.412 30.5613 104.281 30.2456 104.281 29.8521C104.281 29.5283 104.369 29.2448 104.544 29.0016C104.721 28.7583 104.962 28.5696 105.266 28.4354C105.57 28.2995 105.914 28.2315 106.299 28.2315C106.689 28.2315 107.031 28.2995 107.324 28.4354C107.619 28.5696 107.851 28.7565 108.019 28.9962C108.187 29.2341 108.274 29.5078 108.279 29.8172H107.321ZM110.084 32.5083L110.081 31.3358H110.237L111.718 29.6804H112.853L111.031 31.7088H110.83L110.084 32.5083ZM109.199 33.8016V28.3066H110.17V33.8016H109.199ZM111.785 33.8016L110.444 31.9261L111.098 31.2419L112.947 33.8016H111.785ZM113.5 33.8016V29.6804H114.472V33.8016H113.5ZM113.989 29.0955C113.835 29.0955 113.702 29.0445 113.592 28.9425C113.481 28.8388 113.425 28.7145 113.425 28.5696C113.425 28.4229 113.481 28.2986 113.592 28.1966C113.702 28.0929 113.835 28.041 113.989 28.041C114.144 28.041 114.277 28.0929 114.386 28.1966C114.497 28.2986 114.552 28.4229 114.552 28.5696C114.552 28.7145 114.497 28.8388 114.386 28.9425C114.277 29.0445 114.144 29.0955 113.989 29.0955ZM116.442 31.3868V33.8016H115.47V29.6804H116.399V30.3807H116.447C116.542 30.1499 116.693 29.9666 116.9 29.8306C117.11 29.6947 117.368 29.6267 117.676 29.6267C117.96 29.6267 118.208 29.6875 118.419 29.8092C118.632 29.9308 118.797 30.107 118.913 30.3377C119.031 30.5685 119.089 30.8484 119.087 31.1775V33.8016H118.116V31.3278C118.116 31.0523 118.044 30.8368 117.901 30.6812C117.76 30.5255 117.564 30.4477 117.314 30.4477C117.144 30.4477 116.993 30.4853 116.86 30.5604C116.73 30.6338 116.627 30.7402 116.552 30.8797C116.478 31.0192 116.442 31.1883 116.442 31.3868ZM120.949 28.3066L122.159 30.319H122.202L123.418 28.3066H124.553L122.86 31.0541L124.579 33.8016H123.426L122.202 31.8027H122.159L120.936 33.8016H119.787L121.523 31.0541L119.809 28.3066H120.949ZM128.548 30.7697L127.663 30.8663C127.638 30.7769 127.594 30.6928 127.532 30.6141C127.471 30.5354 127.388 30.4719 127.285 30.4236C127.181 30.3753 127.054 30.3511 126.904 30.3511C126.702 30.3511 126.532 30.395 126.394 30.4826C126.258 30.5703 126.191 30.6838 126.193 30.8234C126.191 30.9432 126.235 31.0407 126.324 31.1158C126.415 31.191 126.566 31.2527 126.775 31.301L127.478 31.4512C127.868 31.5353 128.158 31.6685 128.347 31.851C128.539 32.0334 128.635 32.2722 128.637 32.5674C128.635 32.8267 128.559 33.0557 128.409 33.2542C128.26 33.451 128.054 33.6048 127.789 33.7157C127.524 33.8266 127.22 33.8821 126.877 33.8821C126.372 33.8821 125.966 33.7765 125.659 33.5655C125.351 33.3526 125.168 33.0566 125.109 32.6774L126.056 32.5862C126.099 32.7722 126.19 32.9126 126.33 33.0074C126.469 33.1022 126.651 33.1496 126.874 33.1496C127.105 33.1496 127.29 33.1022 127.43 33.0074C127.571 32.9126 127.642 32.7954 127.642 32.6559C127.642 32.5379 127.596 32.4404 127.505 32.3635C127.415 32.2865 127.276 32.2275 127.086 32.1864L126.383 32.0388C125.988 31.9565 125.695 31.8179 125.506 31.6229C125.316 31.4262 125.222 31.1775 125.224 30.877C125.222 30.623 125.291 30.403 125.431 30.217C125.572 30.0292 125.768 29.8843 126.018 29.7823C126.27 29.6786 126.561 29.6267 126.89 29.6267C127.373 29.6267 127.753 29.7296 128.031 29.9353C128.31 30.141 128.482 30.4191 128.548 30.7697Z" fill="#FF8447"/>
</svg>
