<svg width="37" height="23" viewBox="0 0 37 23" fill="none" xmlns="http://www.w3.org/2000/svg">
<path d="M11.4626 2.13357C10.1824 4.28175 0.430861 19.397 0.430861 19.397C0.430861 19.397 -1.30809 22.2198 2.20104 22.2198H6.86066C6.86066 22.2198 7.41549 22.2198 7.85023 21.5403C8.40506 20.6732 18.0558 5.1001 18.0558 5.1001C18.0558 5.1001 18.2143 4.71528 18.4833 4.7372C18.7523 4.75912 18.4833 5.37289 18.4833 5.37289L15.1111 12.2558C15.1111 12.2558 14.9309 12.7089 15.0198 13.2081C15.1111 13.7074 16.9317 22.2222 25.5184 22.2222C34.105 22.2222 36.1971 13.7074 36.1971 13.7074C36.1971 13.7074 36.4444 12.2997 36.4444 11.3279V1.65863C36.4444 1.65863 36.2883 0.0730673 34.6022 0.0292269C32.9161 -0.0146135 29.8129 0.0292269 29.8129 0.0292269L29.7456 11.3668C29.7456 11.3668 29.407 15.3782 25.6529 15.2906C21.7714 15.2004 21.5601 11.3668 21.5601 11.3668L21.5817 0.00730667H14.6379C14.6379 0.00730667 14.5899 0 14.501 0C14.0591 0 12.6347 0.163184 11.4602 2.13357" fill="#442C5D"/>
</svg>
